<?xml version="1.0" encoding="UTF-8" standalone="no"?>
<svg
   viewBox="0 0 329.21 164.93"
   version="1.1"
   id="svg445"
   sodipodi:docname="df2.svg"
   inkscape:version="1.1.2 (0a00cf5339, 2022-02-04)"
   xmlns:inkscape="http://www.inkscape.org/namespaces/inkscape"
   xmlns:sodipodi="http://sodipodi.sourceforge.net/DTD/sodipodi-0.dtd"
   xmlns="http://www.w3.org/2000/svg"
   xmlns:svg="http://www.w3.org/2000/svg"
   xmlns:rdf="http://www.w3.org/1999/02/22-rdf-syntax-ns#"
   xmlns:cc="http://creativecommons.org/ns#"
   xmlns:dc="http://purl.org/dc/elements/1.1/">
  <sodipodi:namedview
     id="namedview447"
     pagecolor="#ffffff"
     bordercolor="#999999"
     borderopacity="1"
     inkscape:pageshadow="0"
     inkscape:pageopacity="0"
     inkscape:pagecheckerboard="0"
     showgrid="false"
     inkscape:zoom="5.0081855"
     inkscape:cx="164.63048"
     inkscape:cy="98.239172"
     inkscape:window-width="960"
     inkscape:window-height="731"
     inkscape:window-x="380"
     inkscape:window-y="154"
     inkscape:window-maximized="0"
     inkscape:current-layer="svg445" />
  <defs
     id="defs397">
    <style
       id="style395">.cls-1{fill:none;stroke:#fff;stroke-linecap:round;stroke-miterlimit:10;stroke-width:0.75px;stroke-dasharray:0.75 3;}.cls-2{fill:#fff;}.cls-3{fill:#f3971f;}.cls-4{fill:#f29720;}</style>
  </defs>
  <title
     id="title399">DataFUSION-Logo-Light</title>
  <g
     id="Layer_2"
     data-name="Layer 2">
    <g
       id="logo">
      <path
         class="cls-1"
         d="M257.26,112.82c16,20.72,25.14,36.57,22,39.34"
         id="path401" />
      <path
         class="cls-1"
         d="M184.24,37.13c6.55,4.41,15.83,12.47,26.43,23"
         id="path403" />
      <path
         class="cls-1"
         d="M279.27,33.78c2.93,2.93-6.55,19.11-22,39.28"
         id="path405" />
      <path
         class="cls-1"
         d="M208.83,127.75c-16.9,16.49-31,27-34,24.41"
         id="path407" />
      <path
         class="cls-1"
         d="M227,19.05c3.86,0,7.25,18.31,9.11,39.88"
         id="path409" />
      <path
         class="cls-1"
         d="M235.79,127.32c-1.91,19-5.12,37.24-8.75,37.24"
         id="path411" />
      <path
         class="cls-2"
         d="M0,.43H11.23a22,22,0,0,1,9.69,2.13,17.62,17.62,0,0,1,7.24,6.49A18.43,18.43,0,0,1,31,19.27a18.39,18.39,0,0,1-2.88,10.31,17.8,17.8,0,0,1-7.32,6.49,22.44,22.44,0,0,1-9.72,2.1H0ZM2.77,3.09V35.51H11a20,20,0,0,0,6.23-1,18.25,18.25,0,0,0,5.45-2.91,13.58,13.58,0,0,0,4-5.13,17.18,17.18,0,0,0,1.49-7.27,16.82,16.82,0,0,0-1.52-7.29,13.19,13.19,0,0,0-4-5.06A18.94,18.94,0,0,0,11.13,3.09Z"
         id="path413" />
      <path
         class="cls-2"
         d="M68.88,26H51.65L47,38.17H44.24L59,0H61.7L76.5,38.17H73.63ZM68,23.58,60.21,3.71,52.57,23.58Z"
         id="path415" />
      <path
         class="cls-2"
         d="M112.87,3.09H100.35V38.17H97.59V3.09H85.5V.43h27.37Z"
         id="path417" />
      <path
         class="cls-2"
         d="M146.45,26H129.21l-4.68,12.19h-2.72L136.56,0h2.71l14.8,38.17H151.2Zm-.93-2.4L137.78,3.71l-7.64,19.87Z"
         id="path419" />
      <path
         class="cls-2"
         d="M35.64,62.68H6.7a1.2,1.2,0,0,0-1.2,1.2V89.33a1.2,1.2,0,0,0,1.2,1.2H27.78a1.2,1.2,0,0,1,1.2,1.2v2.48a1.2,1.2,0,0,1-1.2,1.2H6.7a1.2,1.2,0,0,0-1.2,1.2v30.75a1,1,0,0,1-1,1H1.3a1,1,0,0,1-1-1V58.9a1.2,1.2,0,0,1,1.2-1.2h34.1a1.21,1.21,0,0,1,1.21,1.2v2.57A1.21,1.21,0,0,1,35.64,62.68Z"
         id="path421" />
      <path
         class="cls-2"
         d="M104,57.7a.94.94,0,0,1,1,.95v45q-.1,11.83-8,19.35t-19.85,7.51q-12.14,0-19.95-7.46t-7.91-19.5V58.65a1,1,0,0,1,1-.95h3.18a1,1,0,0,1,.95.95v45a21.46,21.46,0,0,0,6.61,15.76q6.42,6.12,16.17,6.12a22.55,22.55,0,0,0,16.12-6.12q6.47-6.11,6.57-15.76v-45a.94.94,0,0,1,.94-.95Z"
         id="path423" />
      <path
         class="cls-2"
         d="M139.56,55.41a29,29,0,0,1,13.79,3.05,1.09,1.09,0,0,1,.42,1.48l-1.3,2.37a1.1,1.1,0,0,1-1.38.48,31.23,31.23,0,0,0-11.93-2.5q-7.66,0-11.94,3.77A12.45,12.45,0,0,0,123,73.87a12.09,12.09,0,0,0,.5,3.62,8.63,8.63,0,0,0,1.85,3.18c.9,1,1.69,1.88,2.36,2.58a13.84,13.84,0,0,0,3.41,2.31l3.6,1.9,4.18,2.19,4,2.08q7.9,4.08,11.78,8.2t4,11.6q.1,9-6.61,14a26.07,26.07,0,0,1-16,5,36.05,36.05,0,0,1-10.7-1.69,37.09,37.09,0,0,1-7.41-3.07,1.1,1.1,0,0,1-.36-1.56L119,122a1.08,1.08,0,0,1,1.41-.35,33.62,33.62,0,0,0,16.54,4A20.46,20.46,0,0,0,148.32,122q5-3.5,4.87-10.47a13,13,0,0,0-1.19-5.19,12,12,0,0,0-3.37-4.13,31.66,31.66,0,0,0-4.27-3L138.73,96l-5.63-3.21-5.63-3.2a25.57,25.57,0,0,1-4.82-3.67,16,16,0,0,1-3.78-5.33,16.21,16.21,0,0,1-1.3-6.56q0-8.86,6.32-13.73T139.56,55.41Z"
         id="path425" />
      <path
         class="cls-2"
         d="M175,128.24h-3a1.09,1.09,0,0,1-1.09-1.09V58.79A1.09,1.09,0,0,1,172,57.7h3a1.09,1.09,0,0,1,1.09,1.09v68.36A1.09,1.09,0,0,1,175,128.24Z"
         id="path427" />
      <path
         class="cls-3"
         d="M227,55.41a39.08,39.08,0,0,1,20.14,5.67A37.52,37.52,0,0,1,256,68.35,33.31,33.31,0,0,1,262.21,79a39.44,39.44,0,0,1,2.38,13.93q-.09,15.42-9.65,25.67Q244.31,130.23,227,130.53a39.35,39.35,0,0,1-10.05-1.34,39.75,39.75,0,0,1-18.85-11.7,33.13,33.13,0,0,1-6.22-10.64,39.18,39.18,0,0,1-2.39-13.93q0-16.11,10.79-26.81T227,55.41Zm0,4.68a32.37,32.37,0,0,0-14.18,3A27.74,27.74,0,0,0,202.71,71a37.51,37.51,0,0,0-5.77,10.5,33.82,33.82,0,0,0-2,11.39q0,14.13,9.05,23.53t23,9.4A31.48,31.48,0,0,0,244.35,121a30.34,30.34,0,0,0,11.14-12.24,35.59,35.59,0,0,0,3.63-15.87q0-14.33-9.05-23.53T227,60.09Z"
         id="path429" />
      <path
         class="cls-2"
         d="M328.12,128.24h-3.51a1.11,1.11,0,0,1-.9-.47L283.84,69.5a1.08,1.08,0,0,0-2,.61v57a1.09,1.09,0,0,1-1.09,1.09h-2.7a1.09,1.09,0,0,1-1.09-1.09V58.79a1.09,1.09,0,0,1,1.09-1.09h3.14a1.1,1.1,0,0,1,.89.47l40.25,58.49a1.09,1.09,0,0,0,2-.62V58.79a1.09,1.09,0,0,1,1.09-1.09h2.69a1.09,1.09,0,0,1,1.09,1.09v68.36A1.09,1.09,0,0,1,328.12,128.24Z"
         id="path431" />
      <path
         d="M173.49,30.7a3.21,3.21,0,0,1,2.63.9,3.61,3.61,0,0,1,.95,2.59,3.34,3.34,0,0,1-1,2.48,3.46,3.46,0,0,1-2.58,1,3.52,3.52,0,0,1-2.49-6A3.38,3.38,0,0,1,173.49,30.7Z"
         id="path433" />
      <path
         class="cls-2"
         d="M279.46,152.37a2.92,2.92,0,0,1-2.49.42,11.78,11.78,0,0,1-2.29-.74,31.34,31.34,0,0,1-4.15-2.26,91.5,91.5,0,0,1-7.65-5.46c-4.92-3.86-9.58-8-14.16-12.28-9.15-8.5-17.79-17.52-26.19-26.75s-16.44-18.79-24.14-28.62q-5.73-7.41-11.08-15.11a156.2,156.2,0,0,1-9.82-16,.46.46,0,0,1,.81-.44h0c1.56,2.69,3.23,5.3,4.94,7.89s3.52,5.12,5.34,7.64c3.62,5,7.43,10,11.29,14.84,7.7,9.76,15.82,19.19,24.08,28.5S240.84,122.3,249.76,131c4.47,4.32,9.06,8.52,13.83,12.49a91.19,91.19,0,0,0,7.41,5.61,34.64,34.64,0,0,0,4,2.32,11.28,11.28,0,0,0,2.12.78,2.38,2.38,0,0,0,2-.21h0a.29.29,0,0,1,.4,0A.28.28,0,0,1,279.46,152.37Z"
         id="path435" />
      <path
         class="cls-2"
         d="M279.18,33.88a2.64,2.64,0,0,0-2.29-.18,11.63,11.63,0,0,0-2.3.92,36.9,36.9,0,0,0-4.29,2.61c-2.76,1.91-5.38,4-7.94,6.21-5.13,4.36-10.06,9-14.86,13.69-9.56,9.5-18.83,19.3-27.69,29.46s-17.56,20.47-25.69,31.22c-4.1,5.34-8.07,10.79-11.74,16.43-1.83,2.82-3.62,5.67-5.17,8.64a37.25,37.25,0,0,0-2.06,4.56,12.64,12.64,0,0,0-.62,2.38A2.52,2.52,0,0,0,175,152h0a.24.24,0,0,1,0,.33.22.22,0,0,1-.31,0,2.08,2.08,0,0,1-.66-1.23,4.34,4.34,0,0,1-.05-1.34,11.94,11.94,0,0,1,.53-2.54,37.13,37.13,0,0,1,1.92-4.75,98.74,98.74,0,0,1,4.91-8.91c3.57-5.77,7.44-11.33,11.43-16.8s8.21-10.76,12.48-16,8.63-10.42,13.14-15.46,9.07-10,13.74-14.92,9.44-9.69,14.37-14.33,10-9.18,15.24-13.41a100.81,100.81,0,0,1,8.22-6,36.53,36.53,0,0,1,4.45-2.5,12.69,12.69,0,0,1,2.43-.84,2.92,2.92,0,0,1,2.56.36.14.14,0,1,1-.17.21Z"
         id="path437" />
      <path
         class="cls-2"
         d="M227,19.35a3.59,3.59,0,0,0-2,.84,9.09,9.09,0,0,0-1.47,1.73,20.85,20.85,0,0,0-2.11,4.16,62.3,62.3,0,0,0-2.7,9,163.56,163.56,0,0,0-3.13,18.7,318.24,318.24,0,0,0-2,37.93q0,9.51.52,19c.32,6.33.81,12.65,1.54,18.94a171.5,171.5,0,0,0,3,18.75,66.25,66.25,0,0,0,2.7,9.08,22.89,22.89,0,0,0,2.08,4.21c.21.34.47.63.69.94a10.71,10.71,0,0,0,.81.84,4.11,4.11,0,0,0,1,.6,2.22,2.22,0,0,0,.52.2.72.72,0,0,1,.56.23h0a0,0,0,0,1,0,0h0a.74.74,0,0,1-.63.06,1.94,1.94,0,0,1-.59-.19,4.82,4.82,0,0,1-1.07-.64,10.1,10.1,0,0,1-.87-.86c-.25-.32-.53-.62-.75-.95a23.42,23.42,0,0,1-2.26-4.25,65.38,65.38,0,0,1-3-9.1,171.4,171.4,0,0,1-3.62-18.78c-.88-6.31-1.51-12.65-2-19s-.64-12.73-.68-19.1.18-12.75.55-19.11.9-12.72,1.78-19a164.9,164.9,0,0,1,3.56-18.81,64.19,64.19,0,0,1,3.07-9.11,21.75,21.75,0,0,1,2.35-4.24,9.39,9.39,0,0,1,1.7-1.81,4.19,4.19,0,0,1,2.4-.88.28.28,0,0,1,.29.29.29.29,0,0,1-.27.3Z"
         id="path439" />
      <path
         class="cls-4"
         d="M173.48,29.89a4,4,0,0,1,3.25,1.1,4.46,4.46,0,0,1,1.17,3.2,4.16,4.16,0,0,1-1.23,3.07,4.33,4.33,0,0,1-3.19,1.23,4.3,4.3,0,1,1,0-8.6Z"
         id="path441" />
    </g>
  </g>
  <g
     id="Layer_2-8"
     data-name="Layer 2"
     style="opacity:1"
     transform="translate(2,2)">
    <g
       id="logo-5">
      <path
         class="cls-1"
         d="m 257.26,112.82 c 16,20.72 25.14,36.57 22,39.34"
         id="path129" />
      <path
         class="cls-1"
         d="m 184.24,37.13 c 6.55,4.41 15.83,12.47 26.43,23"
         id="path131" />
      <path
         class="cls-1"
         d="m 279.27,33.78 c 2.93,2.93 -6.55,19.11 -22,39.28"
         id="path133" />
      <path
         class="cls-1"
         d="m 208.83,127.75 c -16.9,16.49 -31,27 -34,24.41"
         id="path135" />
      <path
         class="cls-1"
         d="m 227,19.05 c 3.86,0 7.25,18.31 9.11,39.88"
         id="path137" />
      <path
         class="cls-1"
         d="m 235.79,127.32 c -1.91,19 -5.12,37.24 -8.75,37.24"
         id="path139" />
      <path
         d="m 0,0.43 h 11.23 a 22,22 0 0 1 9.69,2.13 17.62,17.62 0 0 1 7.24,6.49 18.43,18.43 0 0 1 2.84,10.22 18.39,18.39 0 0 1 -2.88,10.31 17.8,17.8 0 0 1 -7.32,6.49 22.44,22.44 0 0 1 -9.72,2.1 H 0 Z M 2.77,3.09 V 35.51 H 11 a 20,20 0 0 0 6.23,-1 18.25,18.25 0 0 0 5.45,-2.91 13.58,13.58 0 0 0 4,-5.13 17.18,17.18 0 0 0 1.49,-7.27 16.82,16.82 0 0 0 -1.52,-7.29 13.19,13.19 0 0 0 -4,-5.06 18.94,18.94 0 0 0 -11.52,-3.76 z"
         id="path141" />
      <path
         d="M 68.88,26 H 51.65 L 47,38.17 H 44.24 L 59,0 h 2.7 L 76.5,38.17 H 73.63 Z M 68,23.58 60.21,3.71 52.57,23.58 Z"
         id="path143" />
      <path
         d="M 112.87,3.09 H 100.35 V 38.17 H 97.59 V 3.09 H 85.5 V 0.43 h 27.37 z"
         id="path145" />
      <path
         d="m 146.45,26 h -17.24 l -4.68,12.19 h -2.72 L 136.56,0 h 2.71 l 14.8,38.17 h -2.87 z m -0.93,-2.4 -7.74,-19.89 -7.64,19.87 z"
         id="path147" />
      <path
         d="M 35.64,62.68 H 6.7 a 1.2,1.2 0 0 0 -1.2,1.2 v 25.45 a 1.2,1.2 0 0 0 1.2,1.2 h 21.08 a 1.2,1.2 0 0 1 1.2,1.2 v 2.48 a 1.2,1.2 0 0 1 -1.2,1.2 H 6.7 a 1.2,1.2 0 0 0 -1.2,1.2 v 30.75 a 1,1 0 0 1 -1,1 H 1.3 a 1,1 0 0 1 -1,-1 V 58.9 a 1.2,1.2 0 0 1 1.2,-1.2 h 34.1 a 1.21,1.21 0 0 1 1.21,1.2 v 2.57 a 1.21,1.21 0 0 1 -1.17,1.21 z"
         id="path149" />
      <path
         d="m 104,57.7 a 0.94,0.94 0 0 1 1,0.95 v 45 q -0.1,11.83 -8,19.35 -7.9,7.52 -19.85,7.51 -12.14,0 -19.95,-7.46 -7.81,-7.46 -7.91,-19.5 v -44.9 a 1,1 0 0 1 1,-0.95 h 3.18 a 1,1 0 0 1 0.95,0.95 v 45 a 21.46,21.46 0 0 0 6.61,15.76 q 6.42,6.12 16.17,6.12 a 22.55,22.55 0 0 0 16.12,-6.12 q 6.47,-6.11 6.57,-15.76 v -45 a 0.94,0.94 0 0 1 0.94,-0.95 z"
         id="path151" />
      <path
         d="m 139.56,55.41 a 29,29 0 0 1 13.79,3.05 1.09,1.09 0 0 1 0.42,1.48 l -1.3,2.37 a 1.1,1.1 0 0 1 -1.38,0.48 31.23,31.23 0 0 0 -11.93,-2.5 q -7.66,0 -11.94,3.77 a 12.45,12.45 0 0 0 -4.22,9.81 12.09,12.09 0 0 0 0.5,3.62 8.63,8.63 0 0 0 1.85,3.18 c 0.9,1 1.69,1.88 2.36,2.58 a 13.84,13.84 0 0 0 3.41,2.31 l 3.6,1.9 4.18,2.19 4,2.08 q 7.9,4.08 11.78,8.2 3.88,4.12 4,11.6 0.1,9 -6.61,14 a 26.07,26.07 0 0 1 -16,5 36.05,36.05 0 0 1 -10.7,-1.69 37.09,37.09 0 0 1 -7.41,-3.07 1.1,1.1 0 0 1 -0.36,-1.56 L 119,122 a 1.08,1.08 0 0 1 1.41,-0.35 33.62,33.62 0 0 0 16.54,4 20.46,20.46 0 0 0 11.37,-3.65 q 5,-3.5 4.87,-10.47 a 13,13 0 0 0 -1.19,-5.19 12,12 0 0 0 -3.37,-4.13 31.66,31.66 0 0 0 -4.27,-3 l -5.63,-3.21 -5.63,-3.21 -5.63,-3.2 a 25.57,25.57 0 0 1 -4.82,-3.67 16,16 0 0 1 -3.78,-5.33 16.21,16.21 0 0 1 -1.3,-6.56 q 0,-8.86 6.32,-13.73 6.32,-4.87 15.67,-4.89 z"
         id="path153" />
      <path
         d="m 175,128.24 h -3 a 1.09,1.09 0 0 1 -1.09,-1.09 V 58.79 A 1.09,1.09 0 0 1 172,57.7 h 3 a 1.09,1.09 0 0 1 1.09,1.09 v 68.36 a 1.09,1.09 0 0 1 -1.09,1.09 z"
         id="path155" />
      <path
         class="cls-2"
         d="m 227,55.41 a 39.08,39.08 0 0 1 20.14,5.67 37.52,37.52 0 0 1 8.86,7.27 33.31,33.31 0 0 1 6.21,10.65 39.44,39.44 0 0 1 2.38,13.93 q -0.09,15.42 -9.65,25.67 -10.63,11.63 -27.94,11.93 a 39.35,39.35 0 0 1 -10.05,-1.34 39.75,39.75 0 0 1 -18.85,-11.7 33.13,33.13 0 0 1 -6.22,-10.64 39.18,39.18 0 0 1 -2.39,-13.93 q 0,-16.11 10.79,-26.81 10.79,-10.7 26.72,-10.7 z m 0,4.68 a 32.37,32.37 0 0 0 -14.18,3 27.74,27.74 0 0 0 -10.11,7.91 37.51,37.51 0 0 0 -5.77,10.5 33.82,33.82 0 0 0 -2,11.39 q 0,14.13 9.05,23.53 9.05,9.4 23,9.4 a 31.48,31.48 0 0 0 17.36,-4.82 30.34,30.34 0 0 0 11.14,-12.24 35.59,35.59 0 0 0 3.63,-15.87 q 0,-14.33 -9.05,-23.53 -9.05,-9.2 -23.07,-9.27 z"
         id="path157" />
      <path
         d="m 328.12,128.24 h -3.51 a 1.11,1.11 0 0 1 -0.9,-0.47 L 283.84,69.5 a 1.08,1.08 0 0 0 -2,0.61 v 57 a 1.09,1.09 0 0 1 -1.09,1.09 h -2.7 a 1.09,1.09 0 0 1 -1.09,-1.09 V 58.79 a 1.09,1.09 0 0 1 1.09,-1.09 h 3.14 a 1.1,1.1 0 0 1 0.89,0.47 l 40.25,58.49 a 1.09,1.09 0 0 0 2,-0.62 V 58.79 a 1.09,1.09 0 0 1 1.09,-1.09 h 2.69 a 1.09,1.09 0 0 1 1.09,1.09 v 68.36 a 1.09,1.09 0 0 1 -1.08,1.09 z"
         id="path159" />
      <path
         d="m 173.49,30.7 a 3.21,3.21 0 0 1 2.63,0.9 3.61,3.61 0 0 1 0.95,2.59 3.34,3.34 0 0 1 -1,2.48 3.46,3.46 0 0 1 -2.58,1 3.52,3.52 0 0 1 -2.49,-6 3.38,3.38 0 0 1 2.49,-0.97 z"
         id="path161" />
      <path
         d="m 279.46,152.37 a 2.92,2.92 0 0 1 -2.49,0.42 11.78,11.78 0 0 1 -2.29,-0.74 31.34,31.34 0 0 1 -4.15,-2.26 91.5,91.5 0 0 1 -7.65,-5.46 c -4.92,-3.86 -9.58,-8 -14.16,-12.28 -9.15,-8.5 -17.79,-17.52 -26.19,-26.75 -8.4,-9.23 -16.44,-18.79 -24.14,-28.62 q -5.73,-7.41 -11.08,-15.11 a 156.2,156.2 0 0 1 -9.82,-16 0.46089587,0.46089587 0 0 1 0.81,-0.44 v 0 c 1.56,2.69 3.23,5.3 4.94,7.89 1.71,2.59 3.52,5.12 5.34,7.64 3.62,5 7.43,10 11.29,14.84 7.7,9.76 15.82,19.19 24.08,28.5 8.26,9.31 16.89,18.3 25.81,27 4.47,4.32 9.06,8.52 13.83,12.49 a 91.19,91.19 0 0 0 7.41,5.61 34.64,34.64 0 0 0 4,2.32 11.28,11.28 0 0 0 2.12,0.78 2.38,2.38 0 0 0 2,-0.21 v 0 a 0.29,0.29 0 0 1 0.4,0 0.28,0.28 0 0 1 -0.06,0.38 z"
         id="path163" />
      <path
         d="m 279.18,33.88 a 2.64,2.64 0 0 0 -2.29,-0.18 11.63,11.63 0 0 0 -2.3,0.92 36.9,36.9 0 0 0 -4.29,2.61 c -2.76,1.91 -5.38,4 -7.94,6.21 -5.13,4.36 -10.06,9 -14.86,13.69 -9.56,9.5 -18.83,19.3 -27.69,29.46 -8.86,10.16 -17.56,20.47 -25.69,31.22 -4.1,5.34 -8.07,10.79 -11.74,16.43 -1.83,2.82 -3.62,5.67 -5.17,8.64 a 37.25,37.25 0 0 0 -2.06,4.56 12.64,12.64 0 0 0 -0.62,2.38 2.52,2.52 0 0 0 0.47,2.18 v 0 a 0.24,0.24 0 0 1 0,0.33 0.22,0.22 0 0 1 -0.31,0 2.08,2.08 0 0 1 -0.66,-1.23 4.34,4.34 0 0 1 -0.05,-1.34 11.94,11.94 0 0 1 0.53,-2.54 37.13,37.13 0 0 1 1.92,-4.75 98.74,98.74 0 0 1 4.91,-8.91 c 3.57,-5.77 7.44,-11.33 11.43,-16.8 3.99,-5.47 8.21,-10.76 12.48,-16 4.27,-5.24 8.63,-10.42 13.14,-15.46 4.51,-5.04 9.07,-10 13.74,-14.92 4.67,-4.92 9.44,-9.69 14.37,-14.33 4.93,-4.64 10,-9.18 15.24,-13.41 a 100.81,100.81 0 0 1 8.22,-6 36.53,36.53 0 0 1 4.45,-2.5 12.69,12.69 0 0 1 2.43,-0.84 2.92,2.92 0 0 1 2.56,0.36 0.14,0.14 0 1 1 -0.17,0.21 z"
         id="path165" />
      <path
         d="m 227,19.35 a 3.59,3.59 0 0 0 -2,0.84 9.09,9.09 0 0 0 -1.47,1.73 20.85,20.85 0 0 0 -2.11,4.16 62.3,62.3 0 0 0 -2.7,9 163.56,163.56 0 0 0 -3.13,18.7 318.24,318.24 0 0 0 -2,37.93 q 0,9.51 0.52,19 c 0.32,6.33 0.81,12.65 1.54,18.94 a 171.5,171.5 0 0 0 3,18.75 66.25,66.25 0 0 0 2.7,9.08 22.89,22.89 0 0 0 2.08,4.21 c 0.21,0.34 0.47,0.63 0.69,0.94 a 10.71,10.71 0 0 0 0.81,0.84 4.11,4.11 0 0 0 1,0.6 2.22,2.22 0 0 0 0.52,0.2 0.72,0.72 0 0 1 0.56,0.23 v 0 0 a 0.74,0.74 0 0 1 -0.63,0.06 1.94,1.94 0 0 1 -0.59,-0.19 4.82,4.82 0 0 1 -1.07,-0.64 10.1,10.1 0 0 1 -0.87,-0.86 c -0.25,-0.32 -0.53,-0.62 -0.75,-0.95 a 23.42,23.42 0 0 1 -2.26,-4.25 65.38,65.38 0 0 1 -3,-9.1 171.4,171.4 0 0 1 -3.62,-18.78 c -0.88,-6.31 -1.51,-12.65 -2,-19 -0.49,-6.35 -0.64,-12.73 -0.68,-19.1 -0.04,-6.37 0.18,-12.75 0.55,-19.11 0.37,-6.36 0.9,-12.72 1.78,-19 a 164.9,164.9 0 0 1 3.56,-18.81 64.19,64.19 0 0 1 3.07,-9.11 21.75,21.75 0 0 1 2.35,-4.24 9.39,9.39 0 0 1 1.7,-1.81 4.19,4.19 0 0 1 2.4,-0.88 0.28,0.28 0 0 1 0.29,0.29 0.29,0.29 0 0 1 -0.27,0.3 z"
         id="path167" />
      <path
         class="cls-3"
         d="m 173.48,29.89 a 4,4 0 0 1 3.25,1.1 4.46,4.46 0 0 1 1.17,3.2 4.16,4.16 0 0 1 -1.23,3.07 4.33,4.33 0 0 1 -3.19,1.23 4.3,4.3 0 1 1 0,-8.6 z"
         id="path169" />
    </g>
  </g>
  <metadata
     id="metadata2050">
    <rdf:RDF>
      <cc:Work
         rdf:about="">
        <dc:title>DataFUSION-Logo-Light</dc:title>
      </cc:Work>
    </rdf:RDF>
  </metadata>
</svg>
